<svg aria-hidden="true" style="width:0;height:0;position:absolute;overflow:hidden" xmlns="http://www.w3.org/2000/svg"><defs><symbol id="icon-home" viewBox="0 0 44 44"><path d="M9 3a6 6 0 0 0-6 6v26a6 6 0 0 0 6 6h26a6 6 0 0 0 6-6V9a6 6 0 0 0-6-6H9Zm9.933 21.36v8.196H12.1V21.627H8L21.667 9.333l13.666 12.294h-4.1v10.929H24.4v-8.197h-5.467Z"/></symbol><symbol id="icon-statistics" viewBox="0 0 32 32"><path d="M5.053 0h21.895a5.053 5.053 0 0 1 5.053 5.053v21.895a5.053 5.053 0 0 1-5.053 5.053H5.053A5.053 5.053 0 0 1 0 26.948V5.053A5.053 5.053 0 0 1 5.053 0zm19.789 13.941c1.081 0 1.965-.926 1.965-2.058s-.884-2.059-1.965-2.059-1.965.926-1.965 2.059c0 .185.02.36.069.525l-3.488 3.664c-.157-.051-.334-.072-.511-.072s-.354.021-.511.072l-2.505-2.624c.049-.165.069-.35.069-.535 0-1.132-.884-2.058-1.965-2.058s-1.965.926-1.965 2.058c0 .185.02.371.069.535l-4.48 4.683a1.61 1.61 0 0 0-.501-.072c-1.081 0-1.965.926-1.965 2.059s.884 2.058 1.965 2.058 1.965-.926 1.965-2.058c0-.185-.02-.36-.069-.525l4.47-4.693c.157.051.334.072.511.072s.354-.021.511-.072l2.505 2.625c-.049.165-.069.35-.069.535 0 1.132.884 2.059 1.965 2.059s1.965-.926 1.965-2.059a1.9 1.9 0 0 0-.069-.535l3.498-3.654c.157.051.324.072.501.072z"/></symbol><symbol id="icon-currency" viewBox="0 0 44 44"><path d="M9 3a6 6 0 0 0-6 6v26a6 6 0 0 0 6 6h26a6 6 0 0 0 6-6V9a6 6 0 0 0-6-6H9Zm9.752 15.599c0 1.182.909 1.94 3.733 2.675 2.825.734 5.848 1.941 5.848 5.475 0 2.55-1.928 3.957-4.355 4.417v2.675h-3.733v-2.7c-2.389-.51-4.43-2.04-4.578-4.765h2.737c.137 1.468 1.145 2.612 3.708 2.612 2.75 0 3.36-1.368 3.36-2.227 0-1.157-.623-2.252-3.733-2.998-3.472-.834-5.849-2.265-5.849-5.14 0-2.4 1.942-3.968 4.355-4.491v-2.688h3.733v2.725c2.6.635 3.907 2.6 3.994 4.741h-2.75c-.074-1.555-.895-2.613-3.11-2.613-2.103 0-3.36.946-3.36 2.302Z"/></symbol><symbol id="icon-minus" viewBox="0 0 32 32"><path stroke-width="3.2" d="M0 16h32"/></symbol><symbol id="icon-plus" viewBox="0 0 32 32"><path stroke-width="3.2" d="M16 0v32M0 16h32"/></symbol><symbol id="icon-edit" viewBox="0 0 32 32"><path stroke-linejoin="round" stroke-linecap="round" stroke-width="2.56" d="m23.467 13.511-4.978-4.978M4.178 27.823l4.212-.468c.515-.057.772-.086 1.012-.164.213-.069.416-.167.604-.29.211-.139.394-.322.76-.688L27.201 9.779a3.52 3.52 0 1 0-4.978-4.978L5.789 21.235c-.366.366-.549.549-.688.76a2.49 2.49 0 0 0-.29.604c-.078.24-.106.498-.164 1.012l-.468 4.212z"/></symbol><symbol id="icon-exit" viewBox="0 0 32 32"><path opacity=".6" d="M20.051 23.237h2.499v4.997a3.752 3.752 0 0 1-3.748 3.748H3.748A3.752 3.752 0 0 1 0 28.234V3.748A3.752 3.752 0 0 1 3.748 0h15.054a3.752 3.752 0 0 1 3.748 3.748v4.997h-2.499V3.748a1.25 1.25 0 0 0-1.249-1.249H3.748a1.25 1.25 0 0 0-1.249 1.249v24.486a1.25 1.25 0 0 0 1.249 1.249h15.054a1.25 1.25 0 0 0 1.249-1.249v-4.997zm6.06-13.135-1.767 1.767 2.873 2.874H11.056v2.499h16.161l-2.873 2.873 1.767 1.767L32 15.993l-5.889-5.89z"/></symbol><symbol id="icon-user" viewBox="0 0 32 32"><path opacity=".4" d="M16 20c-4.227 0-7.986 2.041-10.379 5.208-.515.682-.773 1.022-.764 1.483.006.356.23.805.51 1.025.362.284.865.284 1.869.284h17.527c1.004 0 1.507 0 1.869-.284.28-.22.503-.669.51-1.025.008-.461-.249-.801-.764-1.483C23.985 22.041 20.226 20 15.999 20zM16 16a6 6 0 1 0 0-12 6 6 0 0 0 0 12z"/></symbol><symbol id="icon-lock" viewBox="0 0 32 32"><path opacity=".4" d="M24 10.667h-1.333V8c0-3.68-2.987-6.667-6.667-6.667S9.333 4.32 9.333 8v2.667H8a2.675 2.675 0 0 0-2.667 2.667v13.333c0 1.467 1.2 2.667 2.667 2.667h16c1.467 0 2.667-1.2 2.667-2.667V13.334c0-1.467-1.2-2.667-2.667-2.667zm-8 12c-1.467 0-2.667-1.2-2.667-2.667s1.2-2.667 2.667-2.667c1.467 0 2.667 1.2 2.667 2.667s-1.2 2.667-2.667 2.667zm4.133-12h-8.267V8c0-2.28 1.853-4.133 4.133-4.133S20.132 5.72 20.132 8v2.667z"/></symbol><symbol id="icon-email" viewBox="0 0 32 32"><path opacity=".4" d="M26.667 5.333H5.334A2.663 2.663 0 0 0 2.681 8l-.013 16c0 1.467 1.2 2.667 2.667 2.667h21.333c1.467 0 2.667-1.2 2.667-2.667V8c0-1.467-1.2-2.667-2.667-2.667zm0 5.334L16 17.334 5.333 10.667V8L16 14.667 26.667 8v2.667z"/></symbol><symbol id="icon-logo" viewBox="0 0 32 32"><path fill="#ffc727" style="fill:var(--color3,#ffc727)" d="M21.94 4.396c-2.263-.566-4.526-1.698-6.223-3.397-1.697 1.698-3.96 2.83-6.223 3.397.566 5.095 2.263 8.491 6.223 11.322 3.96-2.831 6.223-6.227 6.223-11.322z"/><path fill="#fbfbfb" style="fill:var(--color2,#fbfbfb)" d="M19.677 25.474 3.837 6.793v9.057l12.446 14.152 3.394-4.529zM21.374 23.776l6.789-7.925V7.36L17.414 19.814l3.96 3.963zM21.94 26.606v5.095l6.223-7.359v-5.095l-6.223 7.359zM10.06 26.606l-6.223-7.359v5.095l6.223 7.359v-5.095z"/></symbol><symbol id="icon-date" viewBox="0 0 32 32"><path d="M12 14.667H9.333v2.667H12v-2.667zm5.333 0h-2.667v2.667h2.667v-2.667zm5.334 0H20v2.667h2.667v-2.667zm2.666-9.334H24V2.666h-2.667v2.667H10.666V2.666H7.999v2.667H6.666c-1.48 0-2.653 1.2-2.653 2.667L4 26.667a2.666 2.666 0 0 0 2.667 2.667h18.667c1.467 0 2.667-1.2 2.667-2.667V8c0-1.467-1.2-2.667-2.667-2.667zm0 21.334H6.666V12h18.667v14.667z"/></symbol><symbol id="icon-close" viewBox="0 0 32 32"><path stroke-width="1.778" d="m1.778 1.778 28.444 28.444M1.778 30.222 30.222 1.778"/></symbol></defs></svg>