<svg aria-hidden="true" style="position: absolute; width: 0; height: 0; overflow: hidden;" version="1.1" xmlns="http://www.w3.org/2000/svg" xmlns:xlink="http://www.w3.org/1999/xlink">
<defs>
<symbol id="icon-home" viewBox="0 0 44 44">
<path  opacity="1" d="M9 3C5.68629 3 3 5.68629 3 9V35C3 38.3137 5.68629 41 9 41H35C38.3137 41 41 38.3137 41 35V9C41 5.68629 38.3137 3 35 3H9ZM18.9333 24.3594V32.5555H12.1V21.6274H8L21.6667 9.33325L35.3333 21.6274H31.2333V32.5555H24.4V24.3594H18.9333Z"></path>
</symbol>
<symbol id="icon-statistics" viewBox="0 0 32 32">
<path  opacity="1" d="M5.053 0h21.895c2.79 0 5.053 2.262 5.053 5.053v21.895c0 2.79-2.262 5.053-5.053 5.053h-21.895c-2.791 0-5.053-2.262-5.053-5.053v-21.895c0-2.791 2.262-5.053 5.053-5.053zM24.842 13.941c1.081 0 1.965-0.926 1.965-2.058s-0.884-2.059-1.965-2.059c-1.081 0-1.965 0.926-1.965 2.059 0 0.185 0.020 0.36 0.069 0.525l-3.488 3.664c-0.157-0.051-0.334-0.072-0.511-0.072s-0.354 0.021-0.511 0.072l-2.505-2.624c0.049-0.165 0.069-0.35 0.069-0.535 0-1.132-0.884-2.058-1.965-2.058s-1.965 0.926-1.965 2.058c0 0.185 0.020 0.371 0.069 0.535l-4.48 4.683c-0.157-0.051-0.324-0.072-0.501-0.072-1.081 0-1.965 0.926-1.965 2.059s0.884 2.058 1.965 2.058 1.965-0.926 1.965-2.058c0-0.185-0.020-0.36-0.069-0.525l4.47-4.693c0.157 0.051 0.334 0.072 0.511 0.072s0.354-0.021 0.511-0.072l2.505 2.625c-0.049 0.165-0.069 0.35-0.069 0.535 0 1.132 0.884 2.059 1.965 2.059s1.965-0.926 1.965-2.059c0-0.185-0.020-0.371-0.069-0.535l3.498-3.654c0.157 0.051 0.324 0.072 0.501 0.072z"></path>
</symbol>
<symbol id="icon-currency" viewBox="0 0 44 44">
<path  opacity="1" d="M9 3C5.68629 3 3 5.68629 3 9V35C3 38.3137 5.68629 41 9 41H35C38.3137 41 41 38.3137 41 35V9C41 5.68629 38.3137 3 35 3H9ZM18.7523 18.5989C18.7523 19.7809 19.6607 20.5399 22.4852 21.2741C25.3096 22.0082 28.3332 23.2151 28.3332 26.7489C28.3332 29.2996 26.4046 30.7056 23.9783 31.166V33.8412H20.2455V31.1411C17.8565 30.631 15.8159 29.1005 15.6666 26.3756H18.4039C18.5408 27.8438 19.5487 28.9885 22.1119 28.9885C24.8617 28.9885 25.4714 27.6198 25.4714 26.7613C25.4714 25.6041 24.8493 24.5092 21.7386 23.7626C18.2671 22.9289 15.8905 21.498 15.8905 18.6238C15.8905 16.2223 17.8316 14.6546 20.2455 14.132V11.4443H23.9783V14.1693C26.5788 14.8039 27.8853 16.7698 27.9724 18.91H25.2225C25.1479 17.3546 24.3267 16.297 22.1119 16.297C20.0091 16.297 18.7523 17.2426 18.7523 18.5989Z"></path>
</symbol>
<symbol id="icon-minus" viewBox="0 0 32 32">
<path  stroke-linejoin="miter" stroke-linecap="butt" stroke-miterlimit="4" stroke-width="3.2" d="M0 16h32"></path>
</symbol>
<symbol id="icon-plus" viewBox="0 0 32 32">
<path  stroke-linejoin="miter" stroke-linecap="butt" stroke-miterlimit="4" stroke-width="3.2" d="M16 0v32"></path>
<path  stroke-linejoin="miter" stroke-linecap="butt" stroke-miterlimit="4" stroke-width="3.2" d="M0 16h32"></path>
</symbol>
<symbol id="icon-edit" viewBox="0 0 32 32">
<path  stroke-linejoin="round" stroke-linecap="round" stroke-miterlimit="4" stroke-width="2.56" d="M23.467 13.511l-4.978-4.978M4.178 27.823l4.212-0.468c0.515-0.057 0.772-0.086 1.012-0.164 0.213-0.069 0.416-0.167 0.604-0.29 0.211-0.139 0.394-0.322 0.76-0.688l16.435-16.434c1.375-1.375 1.375-3.603 0-4.978s-3.603-1.375-4.978 0l-16.434 16.434c-0.366 0.366-0.549 0.549-0.688 0.76-0.123 0.187-0.221 0.39-0.29 0.604-0.078 0.24-0.106 0.498-0.164 1.012l-0.468 4.212z"></path>
</symbol>
<symbol id="icon-exit" viewBox="0 0 32 32">
<path opacity="0.6" d="M20.051 23.237h2.499v4.997c0 2.067-1.681 3.748-3.748 3.748h-15.054c-2.066 0-3.748-1.681-3.748-3.748v-24.486c0-2.066 1.681-3.748 3.748-3.748h15.054c2.067 0 3.748 1.681 3.748 3.748v4.997h-2.499v-4.997c0-0.689-0.56-1.249-1.249-1.249h-15.054c-0.689 0-1.249 0.561-1.249 1.249v24.486c0 0.689 0.561 1.249 1.249 1.249h15.054c0.689 0 1.249-0.561 1.249-1.249v-4.997zM26.111 10.102l-1.767 1.767 2.873 2.874h-16.161v2.499h16.161l-2.873 2.873 1.767 1.767 5.889-5.889-5.889-5.89z"></path>
</symbol>
<symbol id="icon-user" viewBox="0 0 32 32">
<path  opacity="0.4" d="M16 20c-4.227 0-7.986 2.041-10.379 5.208-0.515 0.682-0.773 1.022-0.764 1.483 0.006 0.356 0.23 0.805 0.51 1.025 0.362 0.284 0.865 0.284 1.869 0.284h17.527c1.004 0 1.507 0 1.869-0.284 0.28-0.22 0.503-0.669 0.51-1.025 0.008-0.461-0.249-0.801-0.764-1.483-2.393-3.167-6.152-5.208-10.379-5.208z"></path>
<path  opacity="0.4" d="M16 16c3.314 0 6-2.686 6-6s-2.686-6-6-6c-3.314 0-6 2.686-6 6s2.686 6 6 6z"></path>
</symbol>
<symbol id="icon-lock" viewBox="0 0 32 32">
<path  opacity="0.4" d="M24 10.667h-1.333v-2.667c0-3.68-2.987-6.667-6.667-6.667s-6.667 2.987-6.667 6.667v2.667h-1.333c-1.467 0-2.667 1.2-2.667 2.667v13.333c0 1.467 1.2 2.667 2.667 2.667h16c1.467 0 2.667-1.2 2.667-2.667v-13.333c0-1.467-1.2-2.667-2.667-2.667zM16 22.667c-1.467 0-2.667-1.2-2.667-2.667s1.2-2.667 2.667-2.667c1.467 0 2.667 1.2 2.667 2.667s-1.2 2.667-2.667 2.667zM20.133 10.667h-8.267v-2.667c0-2.28 1.853-4.133 4.133-4.133s4.133 1.853 4.133 4.133v2.667z"></path>
</symbol>
<symbol id="icon-email" viewBox="0 0 32 32">
<path  opacity="0.4" d="M26.667 5.333h-21.333c-1.467 0-2.653 1.2-2.653 2.667l-0.013 16c0 1.467 1.2 2.667 2.667 2.667h21.333c1.467 0 2.667-1.2 2.667-2.667v-16c0-1.467-1.2-2.667-2.667-2.667zM26.667 10.667l-10.667 6.667-10.667-6.667v-2.667l10.667 6.667 10.667-6.667v2.667z"></path>
</symbol>
<symbol id="icon-logo" viewBox="0 0 32 32">
<path fill="#ffc727" style="fill: var(--color3, #ffc727)" d="M21.94 4.396c-2.263-0.566-4.526-1.698-6.223-3.397-1.697 1.698-3.96 2.83-6.223 3.397 0.566 5.095 2.263 8.491 6.223 11.322 3.96-2.831 6.223-6.227 6.223-11.322z"></path>
<path fill="#fbfbfb" style="fill: var(--color2, #fbfbfb)" d="M19.677 25.474l-15.84-18.681v9.057l12.446 14.152 3.394-4.529z"></path>
<path fill="#fbfbfb" style="fill: var(--color2, #fbfbfb)" d="M21.374 23.776l6.789-7.925v-8.491l-10.749 12.454 3.96 3.963z"></path>
<path fill="#fbfbfb" style="fill: var(--color2, #fbfbfb)" d="M21.94 26.606v5.095l6.223-7.359v-5.095l-6.223 7.359z"></path>
<path fill="#fbfbfb" style="fill: var(--color2, #fbfbfb)" d="M10.060 26.606l-6.223-7.359v5.095l6.223 7.359v-5.095z"></path>
</symbol>
<symbol id="icon-date" viewBox="0 0 32 32">
<path  d="M12 14.667h-2.667v2.667h2.667v-2.667zM17.333 14.667h-2.667v2.667h2.667v-2.667zM22.667 14.667h-2.667v2.667h2.667v-2.667zM25.333 5.333h-1.333v-2.667h-2.667v2.667h-10.667v-2.667h-2.667v2.667h-1.333c-1.48 0-2.653 1.2-2.653 2.667l-0.013 18.667c0 1.467 1.187 2.667 2.667 2.667h18.667c1.467 0 2.667-1.2 2.667-2.667v-18.667c0-1.467-1.2-2.667-2.667-2.667zM25.333 26.667h-18.667v-14.667h18.667v14.667z"></path>
</symbol>
<symbol id="icon-close" viewBox="0 0 32 32">
<path  stroke-linejoin="miter" stroke-linecap="butt" stroke-miterlimit="4" stroke-width="1.7778" d="M1.778 1.778l28.444 28.444"></path>
<path  stroke-linejoin="miter" stroke-linecap="butt" stroke-miterlimit="4" stroke-width="1.7778" d="M1.778 30.222l28.444-28.444"></path>
</symbol>
</defs>
</svg>
